<svg id="outline" height="512" viewBox="0 0 512 512" width="512" xmlns="http://www.w3.org/2000/svg"><path d="m208 200h64v16h-64z"/><path d="m112 200h72v16h-72z"/><path d="m248 232h136v16h-136z"/><path d="m160 232h64v16h-64z"/><path d="m112 232h32v16h-32z"/><path d="m192 280h112v16h-112z"/><path d="m344 336h40v16h-40z"/><path d="m224 336h96v16h-96z"/><path d="m112 336h88v16h-88z"/><path d="m288 368h96v16h-96z"/><path d="m168 368h96v16h-96z"/><path d="m112 368h32v16h-32z"/><path d="m352 400h32v16h-32z"/><path d="m208 400h120v16h-120z"/><path d="m112 400h72v16h-72z"/><path d="m360 432h24v16h-24z"/><path d="m256 432h80v16h-80z"/><path d="m112 432h120v16h-120z"/><path d="m104 496h304a40.04552 40.04552 0 0 0 40-40v-298.74512a39.73513 39.73513 0 0 0 -11.71582-28.28418l-101.25391-101.25488-.001-.00049a39.74137 39.74137 0 0 0 -28.28415-11.71533h-202.74512a40.04552 40.04552 0 0 0 -40 40v400a40.04552 40.04552 0 0 0 40 40zm-24-440a24.0275 24.0275 0 0 1 24-24h202.74512a24.18908 24.18908 0 0 1 5.25488.581v79.419a40.04552 40.04552 0 0 0 40 40h48v-16h-48a24.02718 24.02718 0 0 1 -24-24v-68.68652l96.9707 96.97119a23.83889 23.83889 0 0 1 7.0293 16.97021v298.74512a24.0275 24.0275 0 0 1 -24 24h-304a24.0275 24.0275 0 0 1 -24-24z"/><path d="m115.2002 150.3999 32 24a7.9984 7.9984 0 0 0 4.7998 1.6001h32a7.9984 7.9984 0 0 0 4.7998-1.6001l32-24a7.99927 7.99927 0 0 0 3.2002-6.3999v-48a7.99943 7.99943 0 0 0 -3.5625-6.65625l-48-32a7.99771 7.99771 0 0 0 -8.875 0l-48 32a7.99943 7.99943 0 0 0 -3.5625 6.65625v48a7.99927 7.99927 0 0 0 3.2002 6.3999zm66.1328 9.6001h-26.666l-26.667-20v-29.05206l35.5625 23.70831a7.99891 7.99891 0 0 0 8.875 0l35.5625-23.70831v29.05206zm-13.333-86.38525 33.57812 22.38525-33.57812 22.38525-33.57812-22.38525z"/></svg>